<mxfile host="app.diagrams.net" modified="2022-10-30T13:54:08.361Z" agent="5.0 (Windows NT 10.0; Win64; x64) AppleWebKit/537.36 (KHTML, like Gecko) Chrome/107.0.0.0 Safari/537.36 Edg/107.0.1418.24" etag="eblSQG4jpo2vEYqfQWXG" version="20.5.1" type="github">
  <diagram id="jDJOhpKCUn7_-XrsKtud" name="第 1 页">
    <mxGraphModel dx="2842" dy="1146" grid="1" gridSize="10" guides="1" tooltips="1" connect="1" arrows="1" fold="1" page="1" pageScale="1" pageWidth="827" pageHeight="1169" math="0" shadow="0">
      <root>
        <mxCell id="0" />
        <mxCell id="1" parent="0" />
        <mxCell id="Xyow2Gh0Tj4Xl1war1eL-1" value="Decode" style="rounded=0;whiteSpace=wrap;html=1;" parent="1" vertex="1">
          <mxGeometry x="160" y="170" width="160" height="140" as="geometry" />
        </mxCell>
        <mxCell id="Xyow2Gh0Tj4Xl1war1eL-2" value="Dispatch" style="rounded=0;whiteSpace=wrap;html=1;" parent="1" vertex="1">
          <mxGeometry x="620" y="160" width="110" height="325" as="geometry" />
        </mxCell>
        <mxCell id="r0-BIvtnJDyXJv6iCW9I-1" value="Instruction fusion" style="rounded=0;whiteSpace=wrap;html=1;" parent="1" vertex="1">
          <mxGeometry x="170" y="180" width="140" height="50" as="geometry" />
        </mxCell>
        <mxCell id="r0-BIvtnJDyXJv6iCW9I-2" value="Rename" style="rounded=0;whiteSpace=wrap;html=1;" parent="1" vertex="1">
          <mxGeometry x="390" y="180" width="160" height="120" as="geometry" />
        </mxCell>
        <mxCell id="r0-BIvtnJDyXJv6iCW9I-3" value="Freelist" style="rounded=0;whiteSpace=wrap;html=1;" parent="1" vertex="1">
          <mxGeometry x="390" y="40" width="160" height="60" as="geometry" />
        </mxCell>
        <mxCell id="r0-BIvtnJDyXJv6iCW9I-4" value="rename table" style="rounded=0;whiteSpace=wrap;html=1;" parent="1" vertex="1">
          <mxGeometry x="240" y="380" width="160" height="60" as="geometry" />
        </mxCell>
        <mxCell id="r0-BIvtnJDyXJv6iCW9I-5" value="rob" style="rounded=0;whiteSpace=wrap;html=1;" parent="1" vertex="1">
          <mxGeometry x="620" y="40" width="310" height="60" as="geometry" />
        </mxCell>
        <mxCell id="r0-BIvtnJDyXJv6iCW9I-7" value="instruction buffer" style="rounded=0;whiteSpace=wrap;html=1;" parent="1" vertex="1">
          <mxGeometry x="-10" y="160" width="90" height="160" as="geometry" />
        </mxCell>
        <mxCell id="r0-BIvtnJDyXJv6iCW9I-8" value="Int disoatch queue" style="rounded=0;whiteSpace=wrap;html=1;" parent="1" vertex="1">
          <mxGeometry x="827" y="180" width="160" height="60" as="geometry" />
        </mxCell>
        <mxCell id="r0-BIvtnJDyXJv6iCW9I-9" value="Fp disoatch queue" style="rounded=0;whiteSpace=wrap;html=1;" parent="1" vertex="1">
          <mxGeometry x="827" y="292.5" width="160" height="60" as="geometry" />
        </mxCell>
        <mxCell id="r0-BIvtnJDyXJv6iCW9I-10" value="L/S disoatch queue" style="rounded=0;whiteSpace=wrap;html=1;" parent="1" vertex="1">
          <mxGeometry x="827" y="400" width="160" height="60" as="geometry" />
        </mxCell>
        <mxCell id="r0-BIvtnJDyXJv6iCW9I-11" value="" style="endArrow=classic;html=1;rounded=0;exitX=1;exitY=0.5;exitDx=0;exitDy=0;" parent="1" source="r0-BIvtnJDyXJv6iCW9I-7" target="Xyow2Gh0Tj4Xl1war1eL-1" edge="1">
          <mxGeometry width="50" height="50" relative="1" as="geometry">
            <mxPoint x="220" y="430" as="sourcePoint" />
            <mxPoint x="270" y="380" as="targetPoint" />
          </mxGeometry>
        </mxCell>
        <mxCell id="r0-BIvtnJDyXJv6iCW9I-12" value="" style="endArrow=classic;html=1;rounded=0;exitX=1;exitY=0.5;exitDx=0;exitDy=0;entryX=0;entryY=0.5;entryDx=0;entryDy=0;" parent="1" source="Xyow2Gh0Tj4Xl1war1eL-1" target="r0-BIvtnJDyXJv6iCW9I-2" edge="1">
          <mxGeometry width="50" height="50" relative="1" as="geometry">
            <mxPoint x="90" y="250" as="sourcePoint" />
            <mxPoint x="180" y="250" as="targetPoint" />
          </mxGeometry>
        </mxCell>
        <mxCell id="r0-BIvtnJDyXJv6iCW9I-13" value="" style="endArrow=classic;html=1;rounded=0;exitX=0.5;exitY=1;exitDx=0;exitDy=0;entryX=0.25;entryY=0;entryDx=0;entryDy=0;" parent="1" source="Xyow2Gh0Tj4Xl1war1eL-1" target="r0-BIvtnJDyXJv6iCW9I-4" edge="1">
          <mxGeometry width="50" height="50" relative="1" as="geometry">
            <mxPoint x="220" y="430" as="sourcePoint" />
            <mxPoint x="270" y="380" as="targetPoint" />
            <Array as="points">
              <mxPoint x="240" y="340" />
              <mxPoint x="280" y="340" />
            </Array>
          </mxGeometry>
        </mxCell>
        <mxCell id="r0-BIvtnJDyXJv6iCW9I-15" value="" style="endArrow=classic;html=1;rounded=0;exitX=0.75;exitY=0;exitDx=0;exitDy=0;entryX=0.5;entryY=1;entryDx=0;entryDy=0;" parent="1" source="r0-BIvtnJDyXJv6iCW9I-4" target="r0-BIvtnJDyXJv6iCW9I-2" edge="1">
          <mxGeometry width="50" height="50" relative="1" as="geometry">
            <mxPoint x="210" y="430" as="sourcePoint" />
            <mxPoint x="260" y="380" as="targetPoint" />
            <Array as="points">
              <mxPoint x="360" y="340" />
              <mxPoint x="470" y="340" />
            </Array>
          </mxGeometry>
        </mxCell>
        <mxCell id="r0-BIvtnJDyXJv6iCW9I-16" value="" style="endArrow=classic;html=1;rounded=0;exitX=1;exitY=0.5;exitDx=0;exitDy=0;entryX=0;entryY=0.25;entryDx=0;entryDy=0;" parent="1" source="r0-BIvtnJDyXJv6iCW9I-2" target="Xyow2Gh0Tj4Xl1war1eL-2" edge="1">
          <mxGeometry width="50" height="50" relative="1" as="geometry">
            <mxPoint x="470" y="260" as="sourcePoint" />
            <mxPoint x="520" y="210" as="targetPoint" />
          </mxGeometry>
        </mxCell>
        <mxCell id="r0-BIvtnJDyXJv6iCW9I-17" value="" style="endArrow=classic;html=1;rounded=0;exitX=1;exitY=0.5;exitDx=0;exitDy=0;entryX=0;entryY=0.5;entryDx=0;entryDy=0;" parent="1" target="r0-BIvtnJDyXJv6iCW9I-8" edge="1">
          <mxGeometry width="50" height="50" relative="1" as="geometry">
            <mxPoint x="730" y="210" as="sourcePoint" />
            <mxPoint x="800" y="211.25" as="targetPoint" />
          </mxGeometry>
        </mxCell>
        <mxCell id="r0-BIvtnJDyXJv6iCW9I-18" value="" style="endArrow=classic;html=1;rounded=0;exitX=1;exitY=0.5;exitDx=0;exitDy=0;entryX=0;entryY=0.5;entryDx=0;entryDy=0;" parent="1" source="Xyow2Gh0Tj4Xl1war1eL-2" target="r0-BIvtnJDyXJv6iCW9I-9" edge="1">
          <mxGeometry width="50" height="50" relative="1" as="geometry">
            <mxPoint x="750" y="310" as="sourcePoint" />
            <mxPoint x="820" y="311.25" as="targetPoint" />
          </mxGeometry>
        </mxCell>
        <mxCell id="r0-BIvtnJDyXJv6iCW9I-19" value="" style="endArrow=classic;html=1;rounded=0;entryX=0;entryY=0.5;entryDx=0;entryDy=0;" parent="1" target="r0-BIvtnJDyXJv6iCW9I-10" edge="1">
          <mxGeometry width="50" height="50" relative="1" as="geometry">
            <mxPoint x="730" y="430" as="sourcePoint" />
            <mxPoint x="810" y="440" as="targetPoint" />
          </mxGeometry>
        </mxCell>
        <mxCell id="r0-BIvtnJDyXJv6iCW9I-20" value="" style="endArrow=classic;html=1;rounded=0;" parent="1" edge="1">
          <mxGeometry width="50" height="50" relative="1" as="geometry">
            <mxPoint x="720" y="100" as="sourcePoint" />
            <mxPoint x="720" y="160" as="targetPoint" />
          </mxGeometry>
        </mxCell>
        <mxCell id="r0-BIvtnJDyXJv6iCW9I-21" value="" style="endArrow=classic;html=1;rounded=0;exitX=0.25;exitY=0;exitDx=0;exitDy=0;entryX=0.09;entryY=1.05;entryDx=0;entryDy=0;entryPerimeter=0;" parent="1" source="Xyow2Gh0Tj4Xl1war1eL-2" target="r0-BIvtnJDyXJv6iCW9I-5" edge="1">
          <mxGeometry width="50" height="50" relative="1" as="geometry">
            <mxPoint x="600" y="290" as="sourcePoint" />
            <mxPoint x="670" y="291.25" as="targetPoint" />
          </mxGeometry>
        </mxCell>
        <mxCell id="r0-BIvtnJDyXJv6iCW9I-22" value="" style="endArrow=classic;html=1;rounded=0;exitX=0.25;exitY=0;exitDx=0;exitDy=0;entryX=0.25;entryY=1;entryDx=0;entryDy=0;" parent="1" source="r0-BIvtnJDyXJv6iCW9I-2" target="r0-BIvtnJDyXJv6iCW9I-3" edge="1">
          <mxGeometry width="50" height="50" relative="1" as="geometry">
            <mxPoint x="610" y="300" as="sourcePoint" />
            <mxPoint x="680" y="301.25" as="targetPoint" />
          </mxGeometry>
        </mxCell>
        <mxCell id="r0-BIvtnJDyXJv6iCW9I-23" value="" style="endArrow=classic;html=1;rounded=0;exitX=0.75;exitY=1;exitDx=0;exitDy=0;entryX=0.75;entryY=0;entryDx=0;entryDy=0;" parent="1" source="r0-BIvtnJDyXJv6iCW9I-3" target="r0-BIvtnJDyXJv6iCW9I-2" edge="1">
          <mxGeometry width="50" height="50" relative="1" as="geometry">
            <mxPoint x="620" y="310" as="sourcePoint" />
            <mxPoint x="690" y="311.25" as="targetPoint" />
          </mxGeometry>
        </mxCell>
        <mxCell id="jpvh6sqLplagpGYcu2fL-1" value="" style="rounded=0;whiteSpace=wrap;html=1;" parent="1" vertex="1">
          <mxGeometry x="680" y="720" width="120" height="40" as="geometry" />
        </mxCell>
        <mxCell id="jpvh6sqLplagpGYcu2fL-2" value="" style="rounded=0;whiteSpace=wrap;html=1;" parent="1" vertex="1">
          <mxGeometry x="680" y="760" width="120" height="40" as="geometry" />
        </mxCell>
        <mxCell id="jpvh6sqLplagpGYcu2fL-3" value="robidx" style="rounded=0;whiteSpace=wrap;html=1;" parent="1" vertex="1">
          <mxGeometry x="680" y="800" width="120" height="40" as="geometry" />
        </mxCell>
        <mxCell id="jpvh6sqLplagpGYcu2fL-4" value="robidx" style="rounded=0;whiteSpace=wrap;html=1;" parent="1" vertex="1">
          <mxGeometry x="680" y="840" width="120" height="40" as="geometry" />
        </mxCell>
        <mxCell id="jpvh6sqLplagpGYcu2fL-5" value="robidx" style="rounded=0;whiteSpace=wrap;html=1;" parent="1" vertex="1">
          <mxGeometry x="680" y="880" width="120" height="40" as="geometry" />
        </mxCell>
        <mxCell id="jpvh6sqLplagpGYcu2fL-6" value="robidx" style="rounded=0;whiteSpace=wrap;html=1;" parent="1" vertex="1">
          <mxGeometry x="680" y="920" width="120" height="40" as="geometry" />
        </mxCell>
        <mxCell id="jpvh6sqLplagpGYcu2fL-7" value="robidx" style="rounded=0;whiteSpace=wrap;html=1;" parent="1" vertex="1">
          <mxGeometry x="680" y="960" width="120" height="40" as="geometry" />
        </mxCell>
        <mxCell id="jpvh6sqLplagpGYcu2fL-8" value="robidx" style="rounded=0;whiteSpace=wrap;html=1;" parent="1" vertex="1">
          <mxGeometry x="680" y="1000" width="120" height="40" as="geometry" />
        </mxCell>
        <mxCell id="jpvh6sqLplagpGYcu2fL-9" value="" style="rounded=0;whiteSpace=wrap;html=1;" parent="1" vertex="1">
          <mxGeometry x="680" y="1040" width="120" height="40" as="geometry" />
        </mxCell>
        <mxCell id="jpvh6sqLplagpGYcu2fL-10" value="" style="rounded=0;whiteSpace=wrap;html=1;" parent="1" vertex="1">
          <mxGeometry x="680" y="1080" width="120" height="40" as="geometry" />
        </mxCell>
        <mxCell id="jpvh6sqLplagpGYcu2fL-11" value="robptr" style="text;html=1;strokeColor=none;fillColor=none;align=center;verticalAlign=middle;whiteSpace=wrap;rounded=0;" parent="1" vertex="1">
          <mxGeometry x="705" y="680" width="70" height="30" as="geometry" />
        </mxCell>
        <mxCell id="jpvh6sqLplagpGYcu2fL-12" value="robhead" style="rounded=0;whiteSpace=wrap;html=1;" parent="1" vertex="1">
          <mxGeometry x="480" y="780" width="120" height="40" as="geometry" />
        </mxCell>
        <mxCell id="jpvh6sqLplagpGYcu2fL-13" value="robtail" style="rounded=0;whiteSpace=wrap;html=1;" parent="1" vertex="1">
          <mxGeometry x="480" y="1020" width="120" height="40" as="geometry" />
        </mxCell>
        <mxCell id="jpvh6sqLplagpGYcu2fL-14" value="" style="endArrow=classic;html=1;rounded=0;exitX=1;exitY=0.5;exitDx=0;exitDy=0;entryX=0;entryY=0;entryDx=0;entryDy=0;" parent="1" source="jpvh6sqLplagpGYcu2fL-12" target="jpvh6sqLplagpGYcu2fL-3" edge="1">
          <mxGeometry width="50" height="50" relative="1" as="geometry">
            <mxPoint x="350" y="870" as="sourcePoint" />
            <mxPoint x="400" y="820" as="targetPoint" />
          </mxGeometry>
        </mxCell>
        <mxCell id="jpvh6sqLplagpGYcu2fL-15" value="" style="endArrow=classic;html=1;rounded=0;exitX=1;exitY=0.5;exitDx=0;exitDy=0;entryX=0;entryY=0;entryDx=0;entryDy=0;" parent="1" edge="1">
          <mxGeometry width="50" height="50" relative="1" as="geometry">
            <mxPoint x="600" y="1039.5" as="sourcePoint" />
            <mxPoint x="680" y="1039.5" as="targetPoint" />
          </mxGeometry>
        </mxCell>
        <mxCell id="jpvh6sqLplagpGYcu2fL-16" value="" style="rounded=0;whiteSpace=wrap;html=1;" parent="1" vertex="1">
          <mxGeometry x="614" y="1310" width="120" height="40" as="geometry" />
        </mxCell>
        <mxCell id="jpvh6sqLplagpGYcu2fL-17" value="" style="rounded=0;whiteSpace=wrap;html=1;" parent="1" vertex="1">
          <mxGeometry x="614" y="1350" width="120" height="40" as="geometry" />
        </mxCell>
        <mxCell id="jpvh6sqLplagpGYcu2fL-18" value="dqptr" style="rounded=0;whiteSpace=wrap;html=1;" parent="1" vertex="1">
          <mxGeometry x="614" y="1390" width="120" height="40" as="geometry" />
        </mxCell>
        <mxCell id="jpvh6sqLplagpGYcu2fL-19" value="dqptr" style="rounded=0;whiteSpace=wrap;html=1;" parent="1" vertex="1">
          <mxGeometry x="614" y="1430" width="120" height="40" as="geometry" />
        </mxCell>
        <mxCell id="jpvh6sqLplagpGYcu2fL-20" value="dqptr" style="rounded=0;whiteSpace=wrap;html=1;" parent="1" vertex="1">
          <mxGeometry x="614" y="1470" width="120" height="40" as="geometry" />
        </mxCell>
        <mxCell id="jpvh6sqLplagpGYcu2fL-21" value="dqptr" style="rounded=0;whiteSpace=wrap;html=1;" parent="1" vertex="1">
          <mxGeometry x="614" y="1510" width="120" height="40" as="geometry" />
        </mxCell>
        <mxCell id="jpvh6sqLplagpGYcu2fL-22" value="dqptr" style="rounded=0;whiteSpace=wrap;html=1;" parent="1" vertex="1">
          <mxGeometry x="614" y="1550" width="120" height="40" as="geometry" />
        </mxCell>
        <mxCell id="jpvh6sqLplagpGYcu2fL-23" value="dqptr" style="rounded=0;whiteSpace=wrap;html=1;" parent="1" vertex="1">
          <mxGeometry x="614" y="1590" width="120" height="40" as="geometry" />
        </mxCell>
        <mxCell id="jpvh6sqLplagpGYcu2fL-24" value="" style="rounded=0;whiteSpace=wrap;html=1;" parent="1" vertex="1">
          <mxGeometry x="614" y="1630" width="120" height="40" as="geometry" />
        </mxCell>
        <mxCell id="jpvh6sqLplagpGYcu2fL-25" value="" style="rounded=0;whiteSpace=wrap;html=1;" parent="1" vertex="1">
          <mxGeometry x="614" y="1670" width="120" height="40" as="geometry" />
        </mxCell>
        <mxCell id="jpvh6sqLplagpGYcu2fL-26" value="circle ptr" style="text;html=1;strokeColor=none;fillColor=none;align=center;verticalAlign=middle;whiteSpace=wrap;rounded=0;" parent="1" vertex="1">
          <mxGeometry x="639" y="1270" width="70" height="30" as="geometry" />
        </mxCell>
        <mxCell id="jpvh6sqLplagpGYcu2fL-27" value="dqhead" style="rounded=0;whiteSpace=wrap;html=1;" parent="1" vertex="1">
          <mxGeometry x="414" y="1370" width="120" height="40" as="geometry" />
        </mxCell>
        <mxCell id="jpvh6sqLplagpGYcu2fL-28" value="dqtail" style="rounded=0;whiteSpace=wrap;html=1;" parent="1" vertex="1">
          <mxGeometry x="414" y="1610" width="120" height="40" as="geometry" />
        </mxCell>
        <mxCell id="jpvh6sqLplagpGYcu2fL-29" value="" style="endArrow=classic;html=1;rounded=0;exitX=1;exitY=0.5;exitDx=0;exitDy=0;entryX=0;entryY=0;entryDx=0;entryDy=0;" parent="1" source="jpvh6sqLplagpGYcu2fL-27" target="jpvh6sqLplagpGYcu2fL-18" edge="1">
          <mxGeometry width="50" height="50" relative="1" as="geometry">
            <mxPoint x="284" y="1460" as="sourcePoint" />
            <mxPoint x="334" y="1410" as="targetPoint" />
          </mxGeometry>
        </mxCell>
        <mxCell id="jpvh6sqLplagpGYcu2fL-30" value="" style="endArrow=classic;html=1;rounded=0;exitX=1;exitY=0.5;exitDx=0;exitDy=0;entryX=0;entryY=0;entryDx=0;entryDy=0;" parent="1" edge="1">
          <mxGeometry width="50" height="50" relative="1" as="geometry">
            <mxPoint x="534" y="1629.5" as="sourcePoint" />
            <mxPoint x="614" y="1629.5" as="targetPoint" />
          </mxGeometry>
        </mxCell>
        <mxCell id="0cN0ujMcvpGcsQl8fxUf-1" value="valid" style="rounded=0;whiteSpace=wrap;html=1;" vertex="1" parent="1">
          <mxGeometry x="960" y="800" width="120" height="40" as="geometry" />
        </mxCell>
        <mxCell id="0cN0ujMcvpGcsQl8fxUf-2" value="writebacked" style="rounded=0;whiteSpace=wrap;html=1;" vertex="1" parent="1">
          <mxGeometry x="1080" y="800" width="120" height="40" as="geometry" />
        </mxCell>
        <mxCell id="0cN0ujMcvpGcsQl8fxUf-3" value="flagBkup" style="rounded=0;whiteSpace=wrap;html=1;" vertex="1" parent="1">
          <mxGeometry x="1200" y="800" width="120" height="40" as="geometry" />
        </mxCell>
        <mxCell id="0cN0ujMcvpGcsQl8fxUf-4" value="uop.robIdx.value" style="text;html=1;strokeColor=none;fillColor=none;align=center;verticalAlign=middle;whiteSpace=wrap;rounded=0;" vertex="1" parent="1">
          <mxGeometry x="950" y="1060" width="140" height="30" as="geometry" />
        </mxCell>
        <mxCell id="0cN0ujMcvpGcsQl8fxUf-5" value="interrupt_safe" style="rounded=0;whiteSpace=wrap;html=1;" vertex="1" parent="1">
          <mxGeometry x="1320" y="800" width="120" height="40" as="geometry" />
        </mxCell>
        <mxCell id="0cN0ujMcvpGcsQl8fxUf-6" value="valid" style="rounded=0;whiteSpace=wrap;html=1;" vertex="1" parent="1">
          <mxGeometry x="960" y="840" width="120" height="40" as="geometry" />
        </mxCell>
        <mxCell id="0cN0ujMcvpGcsQl8fxUf-7" value="writebacked" style="rounded=0;whiteSpace=wrap;html=1;" vertex="1" parent="1">
          <mxGeometry x="1080" y="840" width="120" height="40" as="geometry" />
        </mxCell>
        <mxCell id="0cN0ujMcvpGcsQl8fxUf-8" value="flagBkup" style="rounded=0;whiteSpace=wrap;html=1;" vertex="1" parent="1">
          <mxGeometry x="1200" y="840" width="120" height="40" as="geometry" />
        </mxCell>
        <mxCell id="0cN0ujMcvpGcsQl8fxUf-9" value="interrupt_safe" style="rounded=0;whiteSpace=wrap;html=1;" vertex="1" parent="1">
          <mxGeometry x="1320" y="840" width="120" height="40" as="geometry" />
        </mxCell>
        <mxCell id="0cN0ujMcvpGcsQl8fxUf-10" value="valid" style="rounded=0;whiteSpace=wrap;html=1;" vertex="1" parent="1">
          <mxGeometry x="960" y="880" width="120" height="40" as="geometry" />
        </mxCell>
        <mxCell id="0cN0ujMcvpGcsQl8fxUf-11" value="writebacked" style="rounded=0;whiteSpace=wrap;html=1;" vertex="1" parent="1">
          <mxGeometry x="1080" y="880" width="120" height="40" as="geometry" />
        </mxCell>
        <mxCell id="0cN0ujMcvpGcsQl8fxUf-12" value="flagBkup" style="rounded=0;whiteSpace=wrap;html=1;" vertex="1" parent="1">
          <mxGeometry x="1200" y="880" width="120" height="40" as="geometry" />
        </mxCell>
        <mxCell id="0cN0ujMcvpGcsQl8fxUf-13" value="interrupt_safe" style="rounded=0;whiteSpace=wrap;html=1;" vertex="1" parent="1">
          <mxGeometry x="1320" y="880" width="120" height="40" as="geometry" />
        </mxCell>
        <mxCell id="0cN0ujMcvpGcsQl8fxUf-14" value="valid" style="rounded=0;whiteSpace=wrap;html=1;" vertex="1" parent="1">
          <mxGeometry x="960" y="920" width="120" height="40" as="geometry" />
        </mxCell>
        <mxCell id="0cN0ujMcvpGcsQl8fxUf-15" value="writebacked" style="rounded=0;whiteSpace=wrap;html=1;" vertex="1" parent="1">
          <mxGeometry x="1080" y="920" width="120" height="40" as="geometry" />
        </mxCell>
        <mxCell id="0cN0ujMcvpGcsQl8fxUf-16" value="flagBkup" style="rounded=0;whiteSpace=wrap;html=1;" vertex="1" parent="1">
          <mxGeometry x="1200" y="920" width="120" height="40" as="geometry" />
        </mxCell>
        <mxCell id="0cN0ujMcvpGcsQl8fxUf-17" value="interrupt_safe" style="rounded=0;whiteSpace=wrap;html=1;" vertex="1" parent="1">
          <mxGeometry x="1320" y="920" width="120" height="40" as="geometry" />
        </mxCell>
        <mxCell id="0cN0ujMcvpGcsQl8fxUf-18" value="valid" style="rounded=0;whiteSpace=wrap;html=1;" vertex="1" parent="1">
          <mxGeometry x="960" y="960" width="120" height="40" as="geometry" />
        </mxCell>
        <mxCell id="0cN0ujMcvpGcsQl8fxUf-19" value="writebacked" style="rounded=0;whiteSpace=wrap;html=1;" vertex="1" parent="1">
          <mxGeometry x="1080" y="960" width="120" height="40" as="geometry" />
        </mxCell>
        <mxCell id="0cN0ujMcvpGcsQl8fxUf-20" value="flagBkup" style="rounded=0;whiteSpace=wrap;html=1;" vertex="1" parent="1">
          <mxGeometry x="1200" y="960" width="120" height="40" as="geometry" />
        </mxCell>
        <mxCell id="0cN0ujMcvpGcsQl8fxUf-21" value="interrupt_safe" style="rounded=0;whiteSpace=wrap;html=1;" vertex="1" parent="1">
          <mxGeometry x="1320" y="960" width="120" height="40" as="geometry" />
        </mxCell>
        <mxCell id="0cN0ujMcvpGcsQl8fxUf-22" value="valid" style="rounded=0;whiteSpace=wrap;html=1;" vertex="1" parent="1">
          <mxGeometry x="960" y="1000" width="120" height="40" as="geometry" />
        </mxCell>
        <mxCell id="0cN0ujMcvpGcsQl8fxUf-23" value="writebacked" style="rounded=0;whiteSpace=wrap;html=1;" vertex="1" parent="1">
          <mxGeometry x="1080" y="1000" width="120" height="40" as="geometry" />
        </mxCell>
        <mxCell id="0cN0ujMcvpGcsQl8fxUf-24" value="flagBkup" style="rounded=0;whiteSpace=wrap;html=1;" vertex="1" parent="1">
          <mxGeometry x="1200" y="1000" width="120" height="40" as="geometry" />
        </mxCell>
        <mxCell id="0cN0ujMcvpGcsQl8fxUf-25" value="interrupt_safe" style="rounded=0;whiteSpace=wrap;html=1;" vertex="1" parent="1">
          <mxGeometry x="1320" y="1000" width="120" height="40" as="geometry" />
        </mxCell>
        <mxCell id="0cN0ujMcvpGcsQl8fxUf-26" value="" style="endArrow=classic;html=1;rounded=0;exitX=1;exitY=0.5;exitDx=0;exitDy=0;entryX=0;entryY=0.5;entryDx=0;entryDy=0;" edge="1" parent="1" source="jpvh6sqLplagpGYcu2fL-3" target="0cN0ujMcvpGcsQl8fxUf-1">
          <mxGeometry width="50" height="50" relative="1" as="geometry">
            <mxPoint x="940" y="780" as="sourcePoint" />
            <mxPoint x="990" y="730" as="targetPoint" />
          </mxGeometry>
        </mxCell>
        <mxCell id="0cN0ujMcvpGcsQl8fxUf-27" value="" style="endArrow=classic;html=1;rounded=0;exitX=1;exitY=0.5;exitDx=0;exitDy=0;entryX=0;entryY=0.5;entryDx=0;entryDy=0;" edge="1" parent="1">
          <mxGeometry width="50" height="50" relative="1" as="geometry">
            <mxPoint x="800" y="859.5" as="sourcePoint" />
            <mxPoint x="960" y="859.5" as="targetPoint" />
          </mxGeometry>
        </mxCell>
        <mxCell id="0cN0ujMcvpGcsQl8fxUf-28" value="" style="endArrow=classic;html=1;rounded=0;exitX=1;exitY=0.5;exitDx=0;exitDy=0;entryX=0;entryY=0.5;entryDx=0;entryDy=0;" edge="1" parent="1">
          <mxGeometry width="50" height="50" relative="1" as="geometry">
            <mxPoint x="800" y="899.5" as="sourcePoint" />
            <mxPoint x="960" y="899.5" as="targetPoint" />
          </mxGeometry>
        </mxCell>
        <mxCell id="0cN0ujMcvpGcsQl8fxUf-29" value="" style="endArrow=classic;html=1;rounded=0;exitX=1;exitY=0.5;exitDx=0;exitDy=0;entryX=0;entryY=0.5;entryDx=0;entryDy=0;" edge="1" parent="1">
          <mxGeometry width="50" height="50" relative="1" as="geometry">
            <mxPoint x="800" y="939.5" as="sourcePoint" />
            <mxPoint x="960" y="939.5" as="targetPoint" />
          </mxGeometry>
        </mxCell>
        <mxCell id="0cN0ujMcvpGcsQl8fxUf-30" value="" style="endArrow=classic;html=1;rounded=0;exitX=1;exitY=0.5;exitDx=0;exitDy=0;entryX=0;entryY=0.5;entryDx=0;entryDy=0;" edge="1" parent="1">
          <mxGeometry width="50" height="50" relative="1" as="geometry">
            <mxPoint x="800" y="979.5" as="sourcePoint" />
            <mxPoint x="960" y="979.5" as="targetPoint" />
          </mxGeometry>
        </mxCell>
        <mxCell id="0cN0ujMcvpGcsQl8fxUf-31" value="" style="endArrow=classic;html=1;rounded=0;exitX=1;exitY=0.5;exitDx=0;exitDy=0;entryX=0;entryY=0.5;entryDx=0;entryDy=0;" edge="1" parent="1">
          <mxGeometry width="50" height="50" relative="1" as="geometry">
            <mxPoint x="800" y="1019" as="sourcePoint" />
            <mxPoint x="960" y="1019" as="targetPoint" />
          </mxGeometry>
        </mxCell>
        <mxCell id="0cN0ujMcvpGcsQl8fxUf-32" value="uop" style="rounded=0;whiteSpace=wrap;html=1;" vertex="1" parent="1">
          <mxGeometry x="960" y="1090" width="120" height="40" as="geometry" />
        </mxCell>
        <mxCell id="0cN0ujMcvpGcsQl8fxUf-33" value="uop" style="rounded=0;whiteSpace=wrap;html=1;" vertex="1" parent="1">
          <mxGeometry x="960" y="1130" width="120" height="40" as="geometry" />
        </mxCell>
        <mxCell id="0cN0ujMcvpGcsQl8fxUf-34" value="uop" style="rounded=0;whiteSpace=wrap;html=1;" vertex="1" parent="1">
          <mxGeometry x="960" y="1170" width="120" height="40" as="geometry" />
        </mxCell>
        <mxCell id="0cN0ujMcvpGcsQl8fxUf-35" value="uop" style="rounded=0;whiteSpace=wrap;html=1;" vertex="1" parent="1">
          <mxGeometry x="960" y="1210" width="120" height="40" as="geometry" />
        </mxCell>
        <mxCell id="0cN0ujMcvpGcsQl8fxUf-36" value="uop" style="rounded=0;whiteSpace=wrap;html=1;" vertex="1" parent="1">
          <mxGeometry x="960" y="1250" width="120" height="40" as="geometry" />
        </mxCell>
        <mxCell id="0cN0ujMcvpGcsQl8fxUf-37" value="uop" style="rounded=0;whiteSpace=wrap;html=1;" vertex="1" parent="1">
          <mxGeometry x="960" y="1290" width="120" height="40" as="geometry" />
        </mxCell>
        <mxCell id="0cN0ujMcvpGcsQl8fxUf-38" value="" style="endArrow=classic;html=1;rounded=0;exitX=1;exitY=0.5;exitDx=0;exitDy=0;entryX=0;entryY=0.5;entryDx=0;entryDy=0;" edge="1" parent="1" source="jpvh6sqLplagpGYcu2fL-3" target="0cN0ujMcvpGcsQl8fxUf-32">
          <mxGeometry width="50" height="50" relative="1" as="geometry">
            <mxPoint x="940" y="1310" as="sourcePoint" />
            <mxPoint x="990" y="1260" as="targetPoint" />
          </mxGeometry>
        </mxCell>
        <mxCell id="0cN0ujMcvpGcsQl8fxUf-39" value="" style="endArrow=classic;html=1;rounded=0;exitX=1;exitY=0.5;exitDx=0;exitDy=0;entryX=0;entryY=0.5;entryDx=0;entryDy=0;" edge="1" parent="1">
          <mxGeometry width="50" height="50" relative="1" as="geometry">
            <mxPoint x="800" y="860" as="sourcePoint" />
            <mxPoint x="960" y="1150" as="targetPoint" />
          </mxGeometry>
        </mxCell>
        <mxCell id="0cN0ujMcvpGcsQl8fxUf-40" value="" style="endArrow=classic;html=1;rounded=0;exitX=1;exitY=0.5;exitDx=0;exitDy=0;entryX=0;entryY=0.5;entryDx=0;entryDy=0;" edge="1" parent="1">
          <mxGeometry width="50" height="50" relative="1" as="geometry">
            <mxPoint x="800" y="910" as="sourcePoint" />
            <mxPoint x="960" y="1200" as="targetPoint" />
          </mxGeometry>
        </mxCell>
        <mxCell id="0cN0ujMcvpGcsQl8fxUf-43" value="" style="endArrow=classic;html=1;rounded=0;exitX=1;exitY=0.5;exitDx=0;exitDy=0;entryX=0;entryY=0.5;entryDx=0;entryDy=0;" edge="1" parent="1">
          <mxGeometry width="50" height="50" relative="1" as="geometry">
            <mxPoint x="800" y="940" as="sourcePoint" />
            <mxPoint x="960" y="1230" as="targetPoint" />
          </mxGeometry>
        </mxCell>
        <mxCell id="0cN0ujMcvpGcsQl8fxUf-44" value="" style="endArrow=classic;html=1;rounded=0;exitX=1;exitY=0.5;exitDx=0;exitDy=0;entryX=0;entryY=0.5;entryDx=0;entryDy=0;" edge="1" parent="1">
          <mxGeometry width="50" height="50" relative="1" as="geometry">
            <mxPoint x="800" y="980" as="sourcePoint" />
            <mxPoint x="960" y="1270" as="targetPoint" />
          </mxGeometry>
        </mxCell>
        <mxCell id="0cN0ujMcvpGcsQl8fxUf-45" value="" style="endArrow=classic;html=1;rounded=0;exitX=1;exitY=0.5;exitDx=0;exitDy=0;entryX=0;entryY=0.5;entryDx=0;entryDy=0;" edge="1" parent="1">
          <mxGeometry width="50" height="50" relative="1" as="geometry">
            <mxPoint x="800" y="1020" as="sourcePoint" />
            <mxPoint x="960" y="1310" as="targetPoint" />
          </mxGeometry>
        </mxCell>
      </root>
    </mxGraphModel>
  </diagram>
</mxfile>
